<?xml version="1.0" encoding="UTF-8" standalone="no"?>
<!-- Created with Inkscape (http://www.inkscape.org/) -->

<svg
   width="210mm"
   height="297mm"
   viewBox="0 0 210 297"
   version="1.1"
   id="svg8479"
   sodipodi:docname="fist_2.svg"
   inkscape:version="1.1.2 (b8e25be833, 2022-02-05)"
   xmlns:inkscape="http://www.inkscape.org/namespaces/inkscape"
   xmlns:sodipodi="http://sodipodi.sourceforge.net/DTD/sodipodi-0.dtd"
   xmlns="http://www.w3.org/2000/svg"
   xmlns:svg="http://www.w3.org/2000/svg">
  <sodipodi:namedview
     id="namedview8481"
     pagecolor="#ffffff"
     bordercolor="#666666"
     borderopacity="1.0"
     inkscape:pageshadow="2"
     inkscape:pageopacity="0.0"
     inkscape:pagecheckerboard="0"
     inkscape:document-units="mm"
     showgrid="false"
     inkscape:zoom="1.7524438"
     inkscape:cx="310.7185"
     inkscape:cy="463.34243"
     inkscape:window-width="1826"
     inkscape:window-height="1051"
     inkscape:window-x="-9"
     inkscape:window-y="-9"
     inkscape:window-maximized="1"
     inkscape:current-layer="layer1"
     inkscape:rotation="-4" />
  <defs
     id="defs8476" />
  <g
     inkscape:label="Layer 1"
     inkscape:groupmode="layer"
     id="layer1">
    <path
       style="fill:none;stroke:#000000;stroke-width:0.264583px;stroke-linecap:butt;stroke-linejoin:miter;stroke-opacity:1"
       d="m 109.73077,239.1923 4.67156,-58.98612 23.43666,-12.77126 3.31159,-32.49589 2.92672,-0.87049 3.97917,-22.9599 -0.24878,-21.80095 -8.78414,-6.630031 -12.59086,3.601185 -9.24661,-6.857569 -12.12839,3.828723 L 95.754805,76.543267 83.682691,80.221152 73.341345,74.552883 62.307691,77.192306 54,106.61538 l 21.164805,-1.43219 13.952298,4.06321 14.302377,3.33122 -4.629713,18.83234 -23.593707,-3.97956"
       id="path8675"
       sodipodi:nodetypes="ccccccccccccccccccccc" />
    <path
       style="fill:none;stroke:#000000;stroke-width:0.264583px;stroke-linecap:butt;stroke-linejoin:miter;stroke-opacity:1"
       d="m 54,239.1923 11.076921,-62.65384 -15.230768,-27 -6.230768,-24.57692 c 2.981124,-6.5958 7.470722,-18.76041 7.341991,-18.53299 L 54,106.61538"
       id="path8677"
       sodipodi:nodetypes="cccccc" />
    <path
       style="fill:none;stroke:#000000;stroke-width:0.264583px;stroke-linecap:butt;stroke-linejoin:miter;stroke-opacity:1"
       d="M 83.682691,80.221152 79.04176,106.22045"
       id="path8679"
       sodipodi:nodetypes="cc" />
    <path
       style="fill:none;stroke:#000000;stroke-width:0.264583px;stroke-linecap:butt;stroke-linejoin:miter;stroke-opacity:1"
       d="m 101.12689,111.88555 3.9308,-28.635552"
       id="path8681"
       sodipodi:nodetypes="cc" />
    <path
       style="fill:none;stroke:#000000;stroke-width:0.264583px;stroke-linecap:butt;stroke-linejoin:miter;stroke-opacity:1"
       d="m 99.756026,128.45121 8.672444,5.79271 14.21856,-5.70144 9.96537,8.94399 11.4649,-3.41793"
       id="path8683"
       sodipodi:nodetypes="ccccc" />
    <path
       style="fill:none;stroke:#000000;stroke-width:0.264583px;stroke-linecap:butt;stroke-linejoin:miter;stroke-opacity:1"
       d="m 122.64703,128.54248 3.53338,-19.85211 0.25228,-22.411526"
       id="path8685"
       sodipodi:nodetypes="ccc" />
    <path
       style="fill:none;stroke:#000000;stroke-width:0.264583px;stroke-linecap:butt;stroke-linejoin:miter;stroke-opacity:1"
       d="m 75.196059,127.4304 -8.976835,2.64136 12.40588,12.17057"
       id="path20850"
       sodipodi:nodetypes="ccc" />
    <path
       style="fill:none;stroke:#000000;stroke-width:0.264583px;stroke-linecap:butt;stroke-linejoin:miter;stroke-opacity:1"
       d="m 78.627934,128.12744 8.608186,5.79443 8.076575,-2.90941"
       id="path26083"
       sodipodi:nodetypes="ccc" />
  </g>
</svg>
