<?xml version="1.0" encoding="UTF-8" standalone="no"?>
<!-- Created with Inkscape (http://www.inkscape.org/) -->

<svg
   width="210mm"
   height="297mm"
   viewBox="0 0 210 297"
   version="1.1"
   id="svg880"
   inkscape:version="1.1.2 (b8e25be833, 2022-02-05)"
   sodipodi:docname="paper_0.svg"
   xmlns:inkscape="http://www.inkscape.org/namespaces/inkscape"
   xmlns:sodipodi="http://sodipodi.sourceforge.net/DTD/sodipodi-0.dtd"
   xmlns="http://www.w3.org/2000/svg"
   xmlns:svg="http://www.w3.org/2000/svg">
  <sodipodi:namedview
     id="namedview882"
     pagecolor="#ffffff"
     bordercolor="#666666"
     borderopacity="1.0"
     inkscape:pageshadow="2"
     inkscape:pageopacity="0.0"
     inkscape:pagecheckerboard="0"
     inkscape:document-units="mm"
     showgrid="false"
     inkscape:zoom="2.4525567"
     inkscape:cx="297.85244"
     inkscape:cy="506.00257"
     inkscape:window-width="1826"
     inkscape:window-height="1051"
     inkscape:window-x="-9"
     inkscape:window-y="-9"
     inkscape:window-maximized="1"
     inkscape:current-layer="layer1" />
  <defs
     id="defs877" />
  <g
     inkscape:label="Layer 1"
     inkscape:groupmode="layer"
     id="layer1">
    <path
       style="fill:none;stroke:#000000;stroke-width:0.264583px;stroke-linecap:butt;stroke-linejoin:miter;stroke-opacity:1"
       d="M 91.632246,155.19036 C 90.172743,147.26887 87.021252,135.14166 88.117211,127.36881 89.21317,119.59595 116.85971,82.244063 113.97846,79.589077 111.0972,76.93409 96.963421,103.85083 92.894943,101.53095 88.826465,99.211067 108.70276,59.255325 103.34241,57.951237 97.98207,56.64715 87.718451,97.849559 84.88838,97.484991 80.246021,96.886965 87.11186,51.57448 81.380932,52.798392 75.185475,54.121509 80.177192,95.087048 74.961308,96.576921 69.745425,98.066795 66.221907,56.75927 60.742667,60.276962 c -5.47924,3.517692 9.747395,37.450909 5.636899,44.276288 -4.110496,6.82538 -9.458132,-5.915804 -18.288577,-9.949303 -8.830446,-4.033499 5.199034,7.977913 12.058519,23.658463 4.276894,9.77683 13.672193,7.50196 9.667456,31.26466 z"
       id="path974"
       sodipodi:nodetypes="cszzzzsszzzsc" />
  </g>
</svg>
