<?xml version="1.0" encoding="UTF-8" standalone="no"?>
<!-- Created with Inkscape (http://www.inkscape.org/) -->

<svg
   width="210mm"
   height="297mm"
   viewBox="0 0 210 297"
   version="1.1"
   id="svg14901"
   inkscape:version="1.1.2 (b8e25be833, 2022-02-05)"
   sodipodi:docname="teth.svg"
   xmlns:inkscape="http://www.inkscape.org/namespaces/inkscape"
   xmlns:sodipodi="http://sodipodi.sourceforge.net/DTD/sodipodi-0.dtd"
   xmlns="http://www.w3.org/2000/svg"
   xmlns:svg="http://www.w3.org/2000/svg">
  <sodipodi:namedview
     id="namedview14903"
     pagecolor="#ffffff"
     bordercolor="#666666"
     borderopacity="1.0"
     inkscape:pageshadow="2"
     inkscape:pageopacity="0.0"
     inkscape:pagecheckerboard="0"
     inkscape:document-units="mm"
     showgrid="false"
     inkscape:zoom="3.301901"
     inkscape:cx="275.44739"
     inkscape:cy="638.57155"
     inkscape:window-width="1826"
     inkscape:window-height="1051"
     inkscape:window-x="-9"
     inkscape:window-y="-9"
     inkscape:window-maximized="1"
     inkscape:current-layer="layer1" />
  <defs
     id="defs14898" />
  <g
     inkscape:label="Layer 1"
     inkscape:groupmode="layer"
     id="layer1">
    <path
       style="fill:none;stroke:#000000;stroke-width:0.264583px;stroke-linecap:butt;stroke-linejoin:miter;stroke-opacity:1"
       d="m 89.222959,156.32388 c 0.0076,-12.6431 0.0076,-12.6431 0.0076,-12.6431 l -10.388646,17.60589 10.381056,-4.96279"
       id="path15678" />
    <path
       style="fill:none;stroke:#000000;stroke-width:0.264583px;stroke-linecap:butt;stroke-linejoin:miter;stroke-opacity:1"
       d="m 89.230569,143.68078 -0.0076,12.6431 10.447523,4.93095 -10.439895,-17.57405"
       id="path15680" />
    <path
       style="fill:none;stroke:#000000;stroke-width:0.264583px;stroke-linecap:butt;stroke-linejoin:miter;stroke-opacity:1"
       d="m 89.222959,156.32388 c 0.02215,11.06629 0.02215,11.06629 0.02215,11.06629 l -10.403202,-6.1035 z"
       id="path15684" />
    <path
       style="fill:none;stroke:#000000;stroke-width:0.264583px;stroke-linecap:butt;stroke-linejoin:miter;stroke-opacity:1"
       d="m 89.24511,169.50685 c -0.0048,8.46517 -0.0048,8.46517 -0.0048,8.46517 v 0 l 10.516012,-15.06082 -10.511213,6.59565"
       id="path15688" />
    <path
       style="fill:none;stroke:#000000;stroke-width:0.264583px;stroke-linecap:butt;stroke-linejoin:miter;stroke-opacity:1"
       d="m 78.864053,162.9112 c 10.381054,6.59565 10.381057,6.59565 10.381057,6.59565 v 0 l -0.0048,8.46517 -10.376246,-15.06082"
       id="path15690" />
    <path
       style="fill:none;stroke:#000000;stroke-width:0.264583px;stroke-linecap:butt;stroke-linejoin:miter;stroke-opacity:1"
       d="m 89.222959,156.32388 c 0.02215,11.06629 0.02215,11.06629 0.02215,11.06629 0,0 0,0 0,0 l 10.425372,-6.13534 -10.447528,-4.93095"
       id="path15885" />
  </g>
</svg>
